<svg width="200" height="200" viewBox="0 0 200 200" fill="none" xmlns="http://www.w3.org/2000/svg">
<path d="M91.559 47.871C92.9692 48.9765 94.6449 49.9765 96.5512 50.8437C98.4653 51.7148 100.54 52.4218 102.719 52.9492C104.899 53.4765 107.071 53.789 109.172 53.8867C109.622 53.9062 110.063 53.9179 110.496 53.9179C112.09 53.9179 113.594 53.7812 114.969 53.5156C116.914 53.1367 118.563 52.5 119.883 51.625C121.579 50.4922 122.704 48.9609 123.129 47.1953C123.555 45.4258 123.254 43.5508 122.258 41.7695C121.485 40.3867 120.301 39.0703 118.747 37.8476C117.336 36.746 115.657 35.7421 113.751 34.8749C111.836 33.9999 109.758 33.2929 107.583 32.7694C105.399 32.2421 103.231 31.9257 101.133 31.8319C99.0317 31.7343 97.0825 31.8632 95.3325 32.203C93.3872 32.5819 91.7348 33.2186 90.4184 34.0936C88.7231 35.2264 87.5981 36.7577 87.1723 38.5233C86.7465 40.2889 87.0473 42.1639 88.0434 43.953C88.8246 45.3319 90.0043 46.6522 91.559 47.871ZM94.3598 40.0038C94.6567 39.8046 95.3559 39.4335 96.6918 39.1718C97.891 38.9413 99.2895 38.8515 100.817 38.9218C102.465 38.996 104.184 39.246 105.926 39.6679C107.665 40.0858 109.309 40.6444 110.813 41.332C112.188 41.957 113.418 42.6836 114.371 43.4336C115.438 44.2695 115.891 44.9219 116.067 45.2344C116.137 45.3633 116.176 45.457 116.2 45.5195C116.153 45.5664 116.075 45.6328 115.954 45.7148C115.653 45.914 114.954 46.2851 113.622 46.5469C112.422 46.7773 111.012 46.8633 109.5 46.7969C107.848 46.7226 106.129 46.4687 104.387 46.0508C102.645 45.6328 101 45.0703 99.4965 44.3867C98.1215 43.7617 96.8949 43.0351 95.9418 42.289C94.8754 41.453 94.4184 40.8007 94.2426 40.4882C94.1723 40.3593 94.1332 40.2655 94.1098 40.1991C94.1606 40.1483 94.2387 40.0819 94.3598 40.0038Z" fill="black"/>
<path d="M125.996 67.633C125.605 67.2033 125.207 66.7853 124.797 66.3752C121.551 63.1291 117.766 60.5744 113.547 58.7932C109.18 56.9455 104.543 56.008 99.7618 56.008C94.9884 56.008 90.3556 56.9455 85.9888 58.7892C81.774 60.5744 77.9888 63.1251 74.7388 66.3751C74.3247 66.7892 73.9263 67.211 73.5318 67.6407C66.7115 75.0665 62.9698 84.6367 62.9728 94.7817C62.9728 105.512 67.1525 115.602 74.7388 123.188C75.4302 123.879 76.3404 124.231 77.2505 124.231C78.1606 124.231 79.0669 123.883 79.7622 123.188C80.3091 122.641 80.6333 121.957 80.7466 121.246C82.4107 122.309 84.1528 123.239 85.9888 124.012C87.4302 124.621 88.9068 125.121 90.4029 125.535C92.9498 128.16 96.2115 130.039 99.7662 130.039C103.321 130.039 106.583 128.164 109.129 125.535C110.626 125.125 112.102 124.625 113.547 124.012C115.379 123.238 117.129 122.305 118.79 121.246C118.907 121.957 119.227 122.637 119.774 123.188C120.469 123.879 121.376 124.231 122.286 124.231C123.196 124.231 124.102 123.883 124.797 123.188C132.383 115.602 136.567 105.512 136.567 94.7817C136.564 84.6337 132.821 75.0627 125.997 67.6337L125.996 67.633ZM88.762 65.3283C92.2464 63.8556 95.9495 63.1056 99.774 63.1056C103.594 63.1056 107.301 63.8517 110.786 65.3283C114.153 66.7541 117.181 68.7931 119.782 71.3947C119.868 71.4806 119.946 71.5666 120.028 71.6525C120.27 71.8986 120.509 72.1486 120.739 72.3986C122.888 74.7619 124.602 77.4416 125.849 80.3869C127.321 83.8713 128.071 87.5783 128.071 91.3989C128.071 95.2192 127.325 98.9262 125.849 102.411C124.423 105.782 122.384 108.809 119.782 111.407C118.149 113.04 116.345 114.454 114.395 115.63C114.485 115.067 114.536 114.524 114.536 114.005C114.536 107.837 107.927 104.47 99.7741 104.47C91.6218 104.47 85.016 107.833 85.016 114.005C85.016 114.524 85.0668 115.067 85.1567 115.63C83.2075 114.45 81.4028 113.04 79.77 111.407C77.1684 108.805 75.1294 105.782 73.7075 102.411C72.2348 98.9265 71.4848 95.2195 71.4848 91.3989C71.4848 87.5786 72.2309 83.8716 73.7075 80.3869C74.9536 77.4455 76.6645 74.7619 78.8091 72.4025C79.1216 72.0627 79.4419 71.7228 79.77 71.3947C82.3677 68.797 85.3909 66.7541 88.762 65.3283ZM91.4964 113C93.7073 110.789 96.6487 109.571 99.7737 109.571C102.899 109.571 105.836 110.789 108.051 113C108.746 113.692 108.746 114.817 108.051 115.512C107.703 115.86 107.25 116.032 106.797 116.032C106.34 116.032 105.887 115.856 105.543 115.512C104 113.969 101.957 113.121 99.7776 113.121C97.6018 113.121 95.5549 113.969 94.012 115.512C93.3206 116.203 92.1956 116.203 91.5003 115.512C90.8011 114.817 90.8011 113.696 91.4964 113Z" fill="black"/>
<path d="M87.977 77.492C87.977 82.1053 81.0551 82.1053 81.0551 77.492C81.0551 72.8787 87.977 72.8787 87.977 77.492Z" fill="black"/>
<path d="M118.484 77.492C118.484 82.1053 111.562 82.1053 111.562 77.492C111.562 72.8787 118.484 72.8787 118.484 77.492Z" fill="black"/>
<path d="M161.203 155.976C161.043 156.024 160.787 156.072 160.435 156.12C160.099 156.168 159.747 156.192 159.379 156.192C159.027 156.192 158.707 156.168 158.419 156.12C158.147 156.072 157.915 155.976 157.723 155.832C157.531 155.688 157.379 155.496 157.267 155.256C157.171 155 157.123 154.672 157.123 154.272V147.072C157.123 146.704 157.187 146.392 157.315 146.136C157.459 145.864 157.659 145.624 157.915 145.416C158.171 145.208 158.483 145.024 158.851 144.864C159.235 144.688 159.643 144.536 160.075 144.408C160.507 144.28 160.955 144.184 161.419 144.12C161.883 144.04 162.347 144 162.811 144C163.579 144 164.187 144.152 164.635 144.456C165.083 144.744 165.307 145.224 165.307 145.896C165.307 146.12 165.275 146.344 165.211 146.568C165.147 146.776 165.067 146.968 164.971 147.144C164.635 147.144 164.291 147.16 163.939 147.192C163.587 147.224 163.243 147.272 162.907 147.336C162.571 147.4 162.251 147.472 161.947 147.552C161.659 147.616 161.411 147.696 161.203 147.792V155.976Z" fill="black"/>
<path d="M150.119 156.384C149.175 156.384 148.295 156.256 147.479 156C146.679 155.728 145.975 155.328 145.367 154.8C144.775 154.272 144.303 153.608 143.951 152.808C143.615 152.008 143.447 151.072 143.447 150C143.447 148.944 143.615 148.04 143.951 147.288C144.303 146.52 144.759 145.896 145.319 145.416C145.879 144.92 146.519 144.56 147.239 144.336C147.959 144.096 148.695 143.976 149.447 143.976C150.295 143.976 151.063 144.104 151.751 144.36C152.455 144.616 153.055 144.968 153.551 145.416C154.063 145.864 154.455 146.4 154.727 147.024C155.015 147.648 155.159 148.328 155.159 149.064C155.159 149.608 155.007 150.024 154.703 150.312C154.399 150.6 153.975 150.784 153.431 150.864L147.503 151.752C147.679 152.28 148.039 152.68 148.583 152.952C149.127 153.208 149.751 153.336 150.455 153.336C151.111 153.336 151.727 153.256 152.303 153.096C152.895 152.92 153.375 152.72 153.743 152.496C153.999 152.656 154.215 152.88 154.391 153.168C154.567 153.456 154.655 153.76 154.655 154.08C154.655 154.8 154.319 155.336 153.647 155.688C153.135 155.96 152.559 156.144 151.919 156.24C151.279 156.336 150.679 156.384 150.119 156.384ZM149.447 146.952C149.063 146.952 148.727 147.016 148.439 147.144C148.167 147.272 147.943 147.44 147.767 147.648C147.591 147.84 147.455 148.064 147.359 148.32C147.279 148.56 147.231 148.808 147.215 149.064L151.319 148.392C151.271 148.072 151.095 147.752 150.791 147.432C150.487 147.112 150.039 146.952 149.447 146.952Z" fill="black"/>
<path d="M138.562 151.992C138.562 152.408 138.69 152.704 138.946 152.88C139.218 153.056 139.594 153.144 140.074 153.144C140.314 153.144 140.562 153.128 140.818 153.096C141.074 153.048 141.298 152.992 141.49 152.928C141.634 153.104 141.754 153.304 141.85 153.528C141.962 153.736 142.018 153.992 142.018 154.296C142.018 154.904 141.786 155.4 141.322 155.784C140.874 156.168 140.074 156.36 138.922 156.36C137.514 156.36 136.426 156.04 135.658 155.4C134.906 154.76 134.53 153.72 134.53 152.28V142.008C134.706 141.96 134.954 141.912 135.274 141.864C135.61 141.8 135.962 141.768 136.33 141.768C137.034 141.768 137.578 141.896 137.962 142.152C138.362 142.392 138.562 142.912 138.562 143.712V145.248H141.706C141.802 145.424 141.89 145.648 141.97 145.92C142.066 146.176 142.114 146.464 142.114 146.784C142.114 147.344 141.986 147.752 141.73 148.008C141.49 148.248 141.162 148.368 140.746 148.368H138.562V151.992Z" fill="black"/>
<path d="M126.42 153.408C126.692 153.408 126.988 153.384 127.308 153.336C127.644 153.272 127.892 153.192 128.052 153.096V151.176L126.324 151.32C125.876 151.352 125.508 151.448 125.22 151.608C124.932 151.768 124.788 152.008 124.788 152.328C124.788 152.648 124.908 152.912 125.148 153.12C125.404 153.312 125.828 153.408 126.42 153.408ZM126.228 143.976C127.092 143.976 127.876 144.064 128.58 144.24C129.3 144.416 129.908 144.688 130.404 145.056C130.916 145.408 131.308 145.864 131.58 146.424C131.852 146.968 131.988 147.616 131.988 148.368V153.744C131.988 154.16 131.868 154.504 131.628 154.776C131.404 155.032 131.132 155.256 130.812 155.448C129.772 156.072 128.308 156.384 126.42 156.384C125.572 156.384 124.804 156.304 124.116 156.144C123.444 155.984 122.86 155.744 122.364 155.424C121.884 155.104 121.508 154.696 121.236 154.2C120.98 153.704 120.852 153.128 120.852 152.472C120.852 151.368 121.18 150.52 121.836 149.928C122.492 149.336 123.508 148.968 124.884 148.824L128.028 148.488V148.32C128.028 147.856 127.82 147.528 127.404 147.336C127.004 147.128 126.42 147.024 125.652 147.024C125.044 147.024 124.452 147.088 123.876 147.216C123.3 147.344 122.78 147.504 122.316 147.696C122.108 147.552 121.932 147.336 121.788 147.048C121.644 146.744 121.572 146.432 121.572 146.112C121.572 145.696 121.668 145.368 121.86 145.128C122.068 144.872 122.38 144.656 122.796 144.48C123.26 144.304 123.804 144.176 124.428 144.096C125.068 144.016 125.668 143.976 126.228 143.976Z" fill="black"/>
<path d="M107.741 145.008C107.917 144.928 108.189 144.84 108.557 144.744C108.941 144.632 109.325 144.576 109.709 144.576C110.381 144.576 110.941 144.68 111.389 144.888C111.837 145.08 112.109 145.368 112.205 145.752C112.381 146.408 112.541 147.024 112.685 147.6C112.845 148.16 112.997 148.704 113.141 149.232C113.285 149.744 113.421 150.256 113.549 150.768C113.693 151.28 113.829 151.816 113.957 152.376H114.077C114.221 151.4 114.349 150.472 114.461 149.592C114.573 148.696 114.677 147.824 114.773 146.976C114.869 146.112 114.965 145.264 115.061 144.432C115.157 143.584 115.253 142.728 115.349 141.864C115.941 141.528 116.573 141.36 117.245 141.36C117.837 141.36 118.349 141.488 118.781 141.744C119.213 142 119.429 142.432 119.429 143.04C119.429 143.392 119.389 143.896 119.309 144.552C119.245 145.192 119.149 145.912 119.021 146.712C118.909 147.512 118.773 148.352 118.613 149.232C118.453 150.112 118.285 150.952 118.109 151.752C117.933 152.552 117.749 153.28 117.557 153.936C117.381 154.576 117.213 155.072 117.053 155.424C116.813 155.648 116.421 155.832 115.877 155.976C115.333 156.12 114.773 156.192 114.197 156.192C113.445 156.192 112.805 156.096 112.277 155.904C111.765 155.696 111.453 155.408 111.341 155.04C111.133 154.4 110.909 153.64 110.669 152.76C110.429 151.88 110.173 150.912 109.901 149.856C109.677 150.896 109.445 151.912 109.205 152.904C108.965 153.896 108.749 154.736 108.557 155.424C108.317 155.648 107.957 155.832 107.477 155.976C106.997 156.12 106.469 156.192 105.893 156.192C105.173 156.192 104.517 156.096 103.925 155.904C103.349 155.696 102.973 155.408 102.797 155.04C102.653 154.752 102.493 154.328 102.317 153.768C102.157 153.192 101.989 152.544 101.813 151.824C101.637 151.088 101.453 150.296 101.261 149.448C101.085 148.6 100.917 147.752 100.757 146.904C100.613 146.056 100.477 145.232 100.349 144.432C100.221 143.616 100.125 142.872 100.061 142.2C100.285 141.992 100.597 141.8 100.997 141.624C101.397 141.448 101.829 141.36 102.293 141.36C102.901 141.36 103.397 141.496 103.781 141.768C104.181 142.024 104.429 142.464 104.525 143.088C104.781 144.72 104.989 146.08 105.149 147.168C105.325 148.256 105.461 149.152 105.557 149.856C105.669 150.544 105.749 151.08 105.797 151.464C105.845 151.848 105.893 152.152 105.941 152.376H106.061C106.205 151.736 106.341 151.144 106.469 150.6C106.597 150.056 106.725 149.512 106.853 148.968C106.997 148.408 107.141 147.816 107.285 147.192C107.429 146.552 107.581 145.824 107.741 145.008Z" fill="black"/>
<path d="M93.9318 152.52C93.9318 153.736 93.4758 154.688 92.5638 155.376C91.6518 156.064 90.3077 156.408 88.5317 156.408C87.8597 156.408 87.2358 156.36 86.6598 156.264C86.0838 156.168 85.5877 156.024 85.1717 155.832C84.7717 155.624 84.4518 155.368 84.2118 155.064C83.9877 154.76 83.8758 154.4 83.8758 153.984C83.8758 153.6 83.9557 153.28 84.1157 153.024C84.2757 152.752 84.4677 152.528 84.6917 152.352C85.1557 152.608 85.6837 152.84 86.2757 153.048C86.8837 153.24 87.5798 153.336 88.3638 153.336C88.8598 153.336 89.2357 153.264 89.4917 153.12C89.7637 152.976 89.8997 152.784 89.8997 152.544C89.8997 152.32 89.8038 152.144 89.6118 152.016C89.4198 151.888 89.0997 151.784 88.6517 151.704L87.9318 151.56C86.5398 151.288 85.4997 150.864 84.8117 150.288C84.1397 149.696 83.8037 148.856 83.8037 147.768C83.8037 147.176 83.9318 146.64 84.1878 146.16C84.4438 145.68 84.8037 145.28 85.2677 144.96C85.7317 144.64 86.2838 144.392 86.9238 144.216C87.5798 144.04 88.2998 143.952 89.0838 143.952C89.6758 143.952 90.2277 144 90.7397 144.096C91.2677 144.176 91.7238 144.304 92.1077 144.48C92.4918 144.656 92.7958 144.888 93.0198 145.176C93.2438 145.448 93.3558 145.776 93.3558 146.16C93.3558 146.528 93.2838 146.848 93.1398 147.12C93.0118 147.376 92.8438 147.592 92.6357 147.768C92.5077 147.688 92.3158 147.608 92.0597 147.528C91.8038 147.432 91.5237 147.352 91.2197 147.288C90.9157 147.208 90.6037 147.144 90.2837 147.096C89.9797 147.048 89.6997 147.024 89.4437 147.024C88.9157 147.024 88.5077 147.088 88.2197 147.216C87.9317 147.328 87.7878 147.512 87.7878 147.768C87.7878 147.944 87.8678 148.088 88.0278 148.2C88.1878 148.312 88.4918 148.416 88.9398 148.512L89.6838 148.68C91.2197 149.032 92.3077 149.52 92.9478 150.144C93.6038 150.752 93.9318 151.544 93.9318 152.52Z" fill="black"/>
<path d="M70.123 144.504C70.283 144.456 70.531 144.408 70.867 144.36C71.219 144.312 71.579 144.288 71.947 144.288C72.299 144.288 72.611 144.312 72.883 144.36C73.171 144.408 73.411 144.504 73.603 144.648C73.795 144.792 73.939 144.992 74.035 145.248C74.147 145.488 74.203 145.808 74.203 146.208V151.368C74.203 152.024 74.363 152.496 74.683 152.784C75.003 153.056 75.467 153.192 76.075 153.192C76.443 153.192 76.739 153.16 76.963 153.096C77.203 153.032 77.387 152.968 77.515 152.904V144.504C77.675 144.456 77.923 144.408 78.259 144.36C78.611 144.312 78.971 144.288 79.339 144.288C79.691 144.288 80.003 144.312 80.275 144.36C80.563 144.408 80.803 144.504 80.995 144.648C81.187 144.792 81.331 144.992 81.427 145.248C81.539 145.488 81.595 145.808 81.595 146.208V153.504C81.595 154.304 81.259 154.904 80.587 155.304C80.027 155.656 79.355 155.92 78.571 156.096C77.803 156.288 76.963 156.384 76.051 156.384C75.187 156.384 74.387 156.288 73.651 156.096C72.931 155.904 72.307 155.608 71.779 155.208C71.251 154.808 70.843 154.296 70.555 153.672C70.267 153.032 70.123 152.264 70.123 151.368V144.504Z" fill="black"/>
<path d="M68.1505 152.52C68.1505 153.736 67.6945 154.688 66.7825 155.376C65.8705 156.064 64.5265 156.408 62.7505 156.408C62.0785 156.408 61.4545 156.36 60.8785 156.264C60.3025 156.168 59.8065 156.024 59.3905 155.832C58.9905 155.624 58.6705 155.368 58.4305 155.064C58.2065 154.76 58.0945 154.4 58.0945 153.984C58.0945 153.6 58.1745 153.28 58.3345 153.024C58.4945 152.752 58.6865 152.528 58.9105 152.352C59.3745 152.608 59.9025 152.84 60.4945 153.048C61.1025 153.24 61.7985 153.336 62.5825 153.336C63.0785 153.336 63.4545 153.264 63.7105 153.12C63.9825 152.976 64.1185 152.784 64.1185 152.544C64.1185 152.32 64.0225 152.144 63.8305 152.016C63.6385 151.888 63.3185 151.784 62.8705 151.704L62.1505 151.56C60.7585 151.288 59.7185 150.864 59.0305 150.288C58.3585 149.696 58.0225 148.856 58.0225 147.768C58.0225 147.176 58.1505 146.64 58.4065 146.16C58.6625 145.68 59.0225 145.28 59.4865 144.96C59.9505 144.64 60.5025 144.392 61.1425 144.216C61.7985 144.04 62.5185 143.952 63.3025 143.952C63.8945 143.952 64.4465 144 64.9585 144.096C65.4865 144.176 65.9425 144.304 66.3265 144.48C66.7105 144.656 67.0145 144.888 67.2385 145.176C67.4625 145.448 67.5745 145.776 67.5745 146.16C67.5745 146.528 67.5025 146.848 67.3585 147.12C67.2305 147.376 67.0625 147.592 66.8545 147.768C66.7265 147.688 66.5345 147.608 66.2785 147.528C66.0225 147.432 65.7425 147.352 65.4385 147.288C65.1345 147.208 64.8225 147.144 64.5025 147.096C64.1985 147.048 63.9185 147.024 63.6625 147.024C63.1345 147.024 62.7265 147.088 62.4385 147.216C62.1505 147.328 62.0065 147.512 62.0065 147.768C62.0065 147.944 62.0865 148.088 62.2465 148.2C62.4065 148.312 62.7105 148.416 63.1585 148.512L63.9025 148.68C65.4385 149.032 66.5265 149.52 67.1665 150.144C67.8225 150.752 68.1505 151.544 68.1505 152.52Z" fill="black"/>
<path d="M51.3066 156.384C50.3626 156.384 49.4826 156.256 48.6666 156C47.8666 155.728 47.1626 155.328 46.5546 154.8C45.9626 154.272 45.4906 153.608 45.1386 152.808C44.8026 152.008 44.6346 151.072 44.6346 150C44.6346 148.944 44.8026 148.04 45.1386 147.288C45.4906 146.52 45.9466 145.896 46.5066 145.416C47.0666 144.92 47.7066 144.56 48.4266 144.336C49.1466 144.096 49.8826 143.976 50.6346 143.976C51.4826 143.976 52.2506 144.104 52.9386 144.36C53.6426 144.616 54.2426 144.968 54.7386 145.416C55.2506 145.864 55.6426 146.4 55.9146 147.024C56.2026 147.648 56.3466 148.328 56.3466 149.064C56.3466 149.608 56.1946 150.024 55.8906 150.312C55.5866 150.6 55.1626 150.784 54.6186 150.864L48.6906 151.752C48.8666 152.28 49.2266 152.68 49.7706 152.952C50.3146 153.208 50.9386 153.336 51.6426 153.336C52.2986 153.336 52.9146 153.256 53.4906 153.096C54.0826 152.92 54.5626 152.72 54.9306 152.496C55.1866 152.656 55.4026 152.88 55.5786 153.168C55.7546 153.456 55.8426 153.76 55.8426 154.08C55.8426 154.8 55.5066 155.336 54.8346 155.688C54.3226 155.96 53.7466 156.144 53.1066 156.24C52.4666 156.336 51.8666 156.384 51.3066 156.384ZM50.6346 146.952C50.2506 146.952 49.9146 147.016 49.6266 147.144C49.3546 147.272 49.1306 147.44 48.9546 147.648C48.7786 147.84 48.6426 148.064 48.5466 148.32C48.4666 148.56 48.4186 148.808 48.4026 149.064L52.5066 148.392C52.4586 148.072 52.2826 147.752 51.9786 147.432C51.6746 147.112 51.2266 146.952 50.6346 146.952Z" fill="black"/>
<path d="M38.2 141.456C38.376 141.424 38.656 141.384 39.04 141.336C39.424 141.272 39.792 141.24 40.144 141.24C40.512 141.24 40.832 141.272 41.104 141.336C41.392 141.384 41.632 141.48 41.824 141.624C42.016 141.768 42.16 141.968 42.256 142.224C42.352 142.48 42.4 142.816 42.4 143.232V152.112C42.4 153.536 41.992 154.608 41.176 155.328C40.36 156.032 39.16 156.384 37.576 156.384C36.744 156.384 36.072 156.256 35.56 156C35.192 155.824 34.92 155.584 34.744 155.28C34.584 154.976 34.504 154.632 34.504 154.248C34.504 153.928 34.544 153.648 34.624 153.408C34.72 153.168 34.832 152.976 34.96 152.832C35.264 152.896 35.52 152.944 35.728 152.976C35.952 152.992 36.192 153 36.448 153C37.072 153 37.52 152.848 37.792 152.544C38.064 152.224 38.2 151.76 38.2 151.152V141.456Z" fill="black"/>
</svg>
